<svg width="900" height="660" viewBox="0 0 900 660" xmlns="http://www.w3.org/2000/svg">
  <defs>
    <linearGradient id="g" x1="0" y1="0" x2="1" y2="1">
      <stop offset="0" stop-color="#3B82F6"/>
      <stop offset="1" stop-color="#14B8A6"/>
    </linearGradient>
    <linearGradient id="gd" x1="0" y1="0" x2="1" y2="1">
      <stop offset="0" stop-color="#60A5FA"/>
      <stop offset="1" stop-color="#2DD4BF"/>
    </linearGradient>
  </defs>

  <rect width="900" height="660" fill="#F8FAFC"/>

  <!-- header -->
  <text x="48" y="62" font-family="'Poppins','Inter',Helvetica,Arial,sans-serif" font-size="22" font-weight="700" fill="#0F172A">Wasl — Brand Sheet</text>
  <text x="48" y="86" font-family="'Inter',Helvetica,Arial,sans-serif" font-size="13" fill="#64748B">وصل · "to connect" — One gateway. Every kind of traffic.</text>
  <line x1="48" y1="104" x2="852" y2="104" stroke="#E2E8F0" stroke-width="1.5"/>

  <!-- primary light card -->
  <rect x="48" y="128" width="500" height="180" rx="14" fill="#ffffff" stroke="#E2E8F0"/>
  <g transform="translate(78,178)">
    <rect x="0" y="0" width="88" height="88" rx="24" fill="url(#g)"/>
    <g fill="none" stroke="#ffffff" stroke-linecap="round" transform="scale(0.785)">
      <path d="M16,28 C42,28 46,56 68,56" stroke-width="7.6" opacity="0.95"/>
      <path d="M16,44 C42,44 50,56 68,56" stroke-width="7.6" opacity="0.78"/>
      <path d="M16,68 C42,68 50,56 68,56" stroke-width="7.6" opacity="0.78"/>
      <path d="M16,84 C42,84 46,56 68,56" stroke-width="7.6" opacity="0.95"/>
      <path d="M68,56 L96,56" stroke-width="11.4"/>
    </g>
    <circle cx="53.4" cy="44" r="8.6" fill="#ffffff"/>
    <circle cx="53.4" cy="44" r="3.9" fill="url(#g)"/>
    <text x="108" y="48" font-family="'Poppins','Inter',Helvetica,Arial,sans-serif" font-size="46" font-weight="700" letter-spacing="-1"><tspan fill="url(#g)">W</tspan><tspan fill="#0F172A">asl</tspan></text>
    <text x="110" y="72" font-family="'Inter',Helvetica,Arial,sans-serif" font-size="10" font-weight="600" letter-spacing="2" fill="#64748B">ONE GATEWAY · EVERY KIND OF TRAFFIC</text>
  </g>

  <!-- primary dark card -->
  <rect x="568" y="128" width="284" height="180" rx="14" fill="#0B1220"/>
  <g transform="translate(598,178)">
    <rect x="0" y="0" width="76" height="76" rx="21" fill="url(#gd)"/>
    <g fill="none" stroke="#0B1220" stroke-linecap="round" transform="scale(0.678)">
      <path d="M16,28 C42,28 46,56 68,56" stroke-width="8.8" opacity="0.95"/>
      <path d="M16,44 C42,44 50,56 68,56" stroke-width="8.8" opacity="0.78"/>
      <path d="M16,68 C42,68 50,56 68,56" stroke-width="8.8" opacity="0.78"/>
      <path d="M16,84 C42,84 46,56 68,56" stroke-width="8.8" opacity="0.95"/>
      <path d="M68,56 L96,56" stroke-width="13.2"/>
    </g>
    <circle cx="46.1" cy="38" r="7.5" fill="#0B1220"/>
    <circle cx="46.1" cy="38" r="3.4" fill="url(#gd)"/>
    <text x="92" y="50" font-family="'Poppins','Inter',Helvetica,Arial,sans-serif" font-size="40" font-weight="700" letter-spacing="-1"><tspan fill="url(#gd)">W</tspan><tspan fill="#F1F5F9">asl</tspan></text>
  </g>

  <!-- mark scaling row -->
  <text x="48" y="352" font-family="'Inter',Helvetica,Arial,sans-serif" font-size="12" font-weight="700" letter-spacing="1.5" fill="#94A3B8">THE MARK · SCALES TO FAVICON</text>
  <rect x="48" y="368" width="500" height="150" rx="14" fill="#ffffff" stroke="#E2E8F0"/>
  <!-- big -->
  <g transform="translate(80,398)">
    <rect width="90" height="90" rx="24" fill="url(#g)"/>
    <g fill="none" stroke="#fff" stroke-linecap="round" transform="scale(0.75)">
      <path d="M16,28 C42,28 46,56 68,56" stroke-width="8" opacity="0.95"/>
      <path d="M16,44 C42,44 50,56 68,56" stroke-width="8" opacity="0.78"/>
      <path d="M16,68 C42,68 50,56 68,56" stroke-width="8" opacity="0.78"/>
      <path d="M16,84 C42,84 46,56 68,56" stroke-width="8" opacity="0.95"/>
      <path d="M68,56 L96,56" stroke-width="12"/>
    </g>
    <circle cx="51" cy="42" r="8.2" fill="#fff"/><circle cx="51" cy="42" r="3.7" fill="url(#g)"/>
  </g>
  <!-- mid -->
  <g transform="translate(210,418)">
    <rect width="56" height="56" rx="15" fill="url(#g)"/>
    <g fill="none" stroke="#fff" stroke-linecap="round" transform="scale(0.466)">
      <path d="M16,28 C42,28 46,56 68,56" stroke-width="9" opacity="0.95"/>
      <path d="M16,44 C42,44 50,56 68,56" stroke-width="9" opacity="0.78"/>
      <path d="M16,68 C42,68 50,56 68,56" stroke-width="9" opacity="0.78"/>
      <path d="M16,84 C42,84 46,56 68,56" stroke-width="9" opacity="0.95"/>
      <path d="M68,56 L96,56" stroke-width="13"/>
    </g>
    <circle cx="31.7" cy="26.1" r="5.4" fill="#fff"/><circle cx="31.7" cy="26.1" r="2.4" fill="url(#g)"/>
  </g>
  <!-- small -->
  <g transform="translate(300,428)">
    <rect width="36" height="36" rx="10" fill="url(#g)"/>
    <g fill="none" stroke="#fff" stroke-linecap="round" transform="scale(0.3)">
      <path d="M16,28 C42,28 46,56 68,56" stroke-width="11" opacity="0.95"/>
      <path d="M16,44 C42,44 50,56 68,56" stroke-width="11" opacity="0.78"/>
      <path d="M16,68 C42,68 50,56 68,56" stroke-width="11" opacity="0.78"/>
      <path d="M16,84 C42,84 46,56 68,56" stroke-width="11" opacity="0.95"/>
      <path d="M68,56 L96,56" stroke-width="14"/>
    </g>
    <circle cx="20.4" cy="16.8" r="3.6" fill="#fff"/>
  </g>
  <text x="80" y="506" font-family="'Inter',Helvetica,Arial,sans-serif" font-size="11" fill="#94A3B8">Convergence: many traffic types → one gateway node → unified flow</text>

  <!-- color palette -->
  <text x="568" y="352" font-family="'Inter',Helvetica,Arial,sans-serif" font-size="12" font-weight="700" letter-spacing="1.5" fill="#94A3B8">PALETTE</text>
  <rect x="568" y="368" width="284" height="150" rx="14" fill="#ffffff" stroke="#E2E8F0"/>
  <g font-family="'Inter',Helvetica,Arial,sans-serif">
    <rect x="588" y="390" width="56" height="56" rx="12" fill="#3B82F6"/>
    <text x="588" y="464" font-size="10" font-weight="700" fill="#0F172A">Signal Blue</text>
    <text x="588" y="478" font-size="9.5" fill="#64748B">#3B82F6</text>

    <rect x="664" y="390" width="56" height="56" rx="12" fill="#14B8A6"/>
    <text x="664" y="464" font-size="10" font-weight="700" fill="#0F172A">Flow Teal</text>
    <text x="664" y="478" font-size="9.5" fill="#64748B">#14B8A6</text>

    <rect x="740" y="390" width="56" height="56" rx="12" fill="#0F172A"/>
    <text x="740" y="464" font-size="10" font-weight="700" fill="#0F172A">Ink</text>
    <text x="740" y="478" font-size="9.5" fill="#64748B">#0F172A</text>
  </g>

  <!-- footer note -->
  <line x1="48" y1="556" x2="852" y2="556" stroke="#E2E8F0" stroke-width="1.5"/>
  <text x="48" y="586" font-family="'Inter',Helvetica,Arial,sans-serif" font-size="12" fill="#475569">Wordmark shown in Poppins / Inter (700). For production, outline the text so it renders identically everywhere.</text>
  <text x="48" y="608" font-family="'Inter',Helvetica,Arial,sans-serif" font-size="12" fill="#475569">All files are vector SVG — infinitely scalable, editable in Figma / Illustrator.</text>
</svg>
